<svg width="414" height="245" viewBox="0 0 414 245" fill="none" xmlns="http://www.w3.org/2000/svg">
<path d="M287.46 185.188C288.09 184.968 289.36 184.538 289.99 184.328C297.07 184.478 304.16 184.168 311.24 184.488C318.85 184.888 325.74 190.488 327.96 197.728C330.39 205.578 326.96 214.768 319.68 218.748C319.69 219.388 319.7 220.018 319.73 220.668C322.59 226.628 324.79 232.868 327.63 238.838C326.99 240.378 326.02 241.688 324.48 242.388C323.69 241.808 322.9 241.228 322.12 240.648C321.31 238.218 320.31 235.848 319.27 233.518C318.46 231.618 317.68 229.718 316.9 227.818C316.04 225.588 315.1 223.388 314.23 221.168C311.19 221.218 308.15 221.268 305.11 221.368C300.92 221.228 296.73 221.238 292.55 221.248C292.42 227.418 292.5 233.588 292.49 239.758C292.17 240.348 291.53 241.528 291.21 242.118C290.1 241.978 289 241.888 287.92 241.668C286.16 235.818 287.23 229.578 286.94 223.568C287.21 210.778 286.35 197.938 287.46 185.188ZM292.45 190.008C292.52 198.698 292.41 207.388 292.52 216.078C299.41 216.008 306.31 216.118 313.2 215.968C319.45 214.108 323.65 208.258 323.44 201.718C323.02 200.308 322.66 198.888 322.34 197.448C320.78 194.988 318.7 192.908 316.37 191.188C308.61 188.918 300.4 190.568 292.45 190.008Z" fill="#FDFDFC"/>
<path d="M379.06 184.278C385.75 183.648 392.8 183.858 398.73 187.378C401.6 188.948 404.03 191.168 406.43 193.348C407.28 194.448 408.15 195.528 409.04 196.608C410.89 199.718 412.27 203.068 413.46 206.478C413.92 210.938 413.89 215.438 413.45 219.908C412.29 223.358 410.92 226.778 408.75 229.738C408.72 229.968 408.65 230.448 408.62 230.688C403.09 237.348 395.02 242.468 386.12 242.268C381.58 242.608 377.08 241.768 372.89 240.028C368.04 237.808 364.16 234.098 360.73 230.098C354.76 221.188 353.75 209.078 358.97 199.588C362.87 191.688 370.73 186.528 379.06 184.278ZM378.98 190.288C371.05 192.018 364.96 198.378 361.98 205.718C360.87 212.358 360.75 219.538 364.27 225.528C365.62 227.148 366.94 228.798 368.26 230.458C371.97 233.358 376.14 235.858 380.87 236.598C391.16 238.528 402.62 232.678 406.55 222.848C409.74 215.958 408.92 207.848 405.55 201.188C403.52 198.148 401.03 195.468 398.23 193.138C397.99 193.088 397.51 193.008 397.27 192.968C391.96 189.248 385.13 189.308 378.98 190.288Z" fill="#FDFDFC"/>
<path d="M186.79 188.768C187.25 188.778 188.18 188.808 188.64 188.818C188.52 205.938 188.62 223.048 188.55 240.168C188.12 240.128 187.26 240.038 186.84 239.998C186.83 236.348 186.94 232.688 186.74 229.048C184.07 233.648 180.32 237.788 175.24 239.708C165.6 243.898 153.5 238.648 149.14 229.268L148.72 229.088C147.97 226.268 147.39 223.408 146.79 220.548C147.11 210.038 155.59 199.448 166.68 199.818L166.55 199.158C167.32 199.178 168.85 199.208 169.62 199.218L169.49 199.968C171.24 200.008 172.99 200.078 174.74 200.138L174.71 201.378C175.17 201.248 176.11 200.988 176.58 200.858L176.68 201.558C181.21 203.448 184.42 207.288 186.77 211.478C186.94 203.908 186.9 196.328 186.79 188.768ZM160.95 202.408C156.12 204.638 152.14 208.568 149.98 213.438C149.62 214.848 149.22 216.248 148.78 217.638C148 224.618 151.12 231.848 156.95 235.828C162.8 240.068 170.95 240.308 177.27 236.968C182.25 233.398 186.54 228.038 186.8 221.698C187.52 214.328 183.29 207.268 177.21 203.358C173.1 201.478 168.63 200.688 164.12 201.308C163.07 201.698 162.01 202.068 160.95 202.408Z" fill="#FDFDFC" stroke="white" stroke-width="2"/>
<path d="M5.71 193.278C6.06 193.248 6.77 193.198 7.12 193.178C7.46 193.988 7.81 194.798 8.16 195.608C12.99 205.188 17.37 214.998 22.01 224.668C23.02 226.858 24 229.058 24.92 231.288C25.31 231.338 26.1 231.448 26.49 231.498C27.32 229.508 28.18 227.548 29.11 225.608C34.58 214.528 39.13 202.938 45.35 192.248C47.5 208.178 48.02 224.278 49.74 240.238C49.28 240.158 48.36 239.998 47.9 239.928C46.91 225.788 45.44 211.698 44.38 197.568C40.44 205.498 36.73 213.528 32.89 221.508C30.66 226.328 28.56 231.208 26.2 235.968C23.19 233.118 22.35 228.878 20.4 225.358C15.77 216.318 12.18 206.748 7.04 197.978C6.1 209.828 5.19 221.698 4 233.528C3.8 236.048 3.63 238.568 3.21 241.068C2.91 240.468 2.3 239.268 2 238.668C2.43 233.988 2.77 229.288 2.98 224.588C4.2 214.178 4.89 203.718 5.71 193.278Z" fill="#FDFDFC" stroke="white" stroke-width="2"/>
<path d="M229.09 200.538C230.46 200.248 231.84 199.988 233.23 199.738C234.99 199.438 236.77 199.258 238.56 199.088L238.44 199.918C240 200.048 241.56 200.198 243.12 200.408C250.61 203.968 257.49 211.208 256.75 220.058C243.6 219.998 230.45 220.058 217.3 220.038C217.42 221.978 217.58 223.928 217.73 225.878C220.25 232.098 225.32 237.408 231.98 239.018C235.06 239.308 238.21 239.408 241.27 238.848C244.62 237.908 247.38 235.728 250.13 233.718C250 237.538 245.85 238.718 242.91 239.938C239.18 241.438 235.14 241.288 231.24 240.788C228.56 239.698 225.95 238.438 223.47 236.958C218.9 232.758 215.15 227.028 215.52 220.578C215 211.808 221.2 203.808 229.09 200.538ZM217.23 218.238C229.95 218.268 242.67 218.278 255.39 218.248C253.93 209.958 247.41 203.158 239.25 201.168C236.57 201.178 233.89 201.218 231.22 201.488C223.99 204.128 218.12 210.408 217.23 218.238Z" fill="#FDFDFC" stroke="white" stroke-width="2"/>
<path d="M91.2784 200.7C96.5384 198.64 102.348 198.89 107.548 201.01C111.178 203.11 114.598 205.75 116.658 209.49C117.048 209.91 117.808 210.74 118.188 211.16C118.148 207.11 117.988 203.04 118.288 199C118.648 199.55 119.368 200.66 119.718 201.21C119.868 213.53 119.868 225.88 119.708 238.2C119.348 238.7 118.638 239.69 118.278 240.19C117.978 236.36 118.158 232.51 118.068 228.67C113.358 236.74 104.138 242.63 94.5684 240.49C86.6984 238.43 80.4384 232.02 78.2884 224.21C77.3084 218.12 78.8184 211.53 82.9384 206.84C85.0084 204.37 87.7284 202.59 90.3684 200.78C90.5984 200.76 91.0484 200.72 91.2784 200.7ZM89.9084 203.08L89.8284 204.09C89.4584 204 88.7184 203.83 88.3484 203.74C85.7684 206.39 82.9584 208.98 81.3984 212.41C79.6384 216.13 79.5184 220.41 80.1784 224.42C82.1184 231.14 87.6584 236.6 94.3684 238.54C97.3584 239.12 100.418 238.84 103.438 238.74C109.898 236.3 115.768 231.42 117.428 224.47C120.228 214.47 112.668 203.8 102.938 201.42L102.988 200.89C100.208 200.91 97.4084 200.9 94.6384 201.16C93.0684 201.83 91.4884 202.46 89.9084 203.08Z" fill="#FDFDFC" stroke="white" stroke-width="2"/>
<path d="M178.488 4.53C181.058 2.84 183.588 0.98 186.538 0C190.698 3.29 195.368 5.85 199.758 8.82C201.408 9.83 203.058 10.84 204.698 11.87C206.128 12.75 207.548 13.63 208.978 14.5C211.898 16.32 214.818 18.14 217.718 19.99C220.148 21.48 222.568 22.98 224.958 24.51C235.208 30.68 245.128 37.38 255.438 43.44L255.358 43.8C256.528 44.4 257.688 45.01 258.838 45.65C260.488 46.72 262.148 47.78 263.818 48.82C273.048 54.41 281.938 60.56 291.328 65.87C291.808 93.98 291.418 122.1 291.508 150.22C288.108 150.21 284.708 150.21 281.318 150.21C281.218 124.08 281.398 97.94 281.218 71.81C279.638 70.9 278.078 69.97 276.528 69.01C275.668 67.63 274.708 66.32 273.618 65.12C272.718 65.34 271.318 65.24 271.098 66.42L270.998 67.38C272.138 70.03 271.348 72.88 271.558 75.67C271.558 100.52 271.628 125.38 271.518 150.23C268.108 150.22 264.698 150.22 261.288 150.24C261.158 119.87 261.468 89.5 261.128 59.14C257.768 57.58 254.698 55.49 251.508 53.63C251.438 85.83 251.558 118.03 251.458 150.23C248.018 150.21 244.578 150.2 241.148 150.23C241.198 115.75 241.198 81.28 241.138 46.8C237.828 44.89 234.578 42.86 231.388 40.76C231.408 52.95 231.418 65.13 231.388 77.32C227.988 77.29 224.598 77.27 221.198 77.35C221.198 62.99 221.148 48.62 221.218 34.25L219.998 34.49L220.208 33.67C218.398 32.7 216.638 31.64 214.938 30.48C213.788 29.85 212.638 29.24 211.468 28.65C211.528 44.87 211.548 61.09 211.478 77.31C208.018 77.28 204.568 77.29 201.108 77.3C201.158 58.9 201.018 40.49 201.198 22.09C200.088 21.28 198.968 20.48 197.848 19.68C196.518 18.96 195.178 18.25 193.838 17.57C192.978 16.69 192.138 15.81 191.318 14.92C190.798 35.68 191.178 56.47 191.118 77.24C187.568 77.3 184.018 77.32 180.468 77.24C180.478 56.72 180.688 36.18 180.358 15.66C176.988 17.74 173.578 19.75 170.368 22.06C170.608 40.47 170.388 58.88 170.478 77.29C166.998 77.3 163.518 77.29 160.038 77.33C160.108 60.86 160.038 44.38 160.048 27.9C157.448 30.19 154.478 32.03 151.418 33.64L151.528 34.38L150.378 34.42C150.418 48.72 150.398 63.01 150.378 77.3C147.008 77.29 143.628 77.3 140.248 77.3C140.128 65.15 140.288 53 140.158 40.85C138.068 42.16 135.968 43.47 133.808 44.67C132.498 45.76 130.148 46.53 130.418 48.62C130.428 82.48 130.428 116.34 130.418 150.2C126.988 150.2 123.558 150.2 120.138 150.22C120.038 118.01 120.168 85.81 120.078 53.61C116.808 55.49 113.638 57.54 110.358 59.4C110.338 89.67 110.338 119.94 110.358 150.21C106.918 150.24 103.478 150.24 100.038 150.24C99.958 122.35 100.068 94.46 99.988 66.57C96.548 67.79 93.618 70.03 90.438 71.77C90.078 97.91 90.378 124.08 90.278 150.23C86.888 150.21 83.488 150.21 80.098 150.21C80.098 122.08 79.798 93.94 80.248 65.82C89.788 60.55 98.668 54.15 108.128 48.74L108.178 48.12L109.328 48.27L109.538 47.6C111.748 46.35 113.908 45.01 116.118 43.78L116.088 43.38C117.248 42.76 118.398 42.12 119.538 41.47C121.208 40.44 122.868 39.4 124.538 38.36C134.018 32.47 143.398 26.42 152.908 20.58C154.578 19.52 156.218 18.41 157.828 17.26C158.048 17.22 158.508 17.15 158.728 17.11C160.858 15.61 163.048 14.19 165.298 12.87L165.388 12.09C165.708 12.12 166.348 12.16 166.678 12.19C170.458 9.4 174.588 7.14 178.488 4.53Z" fill="#FDFDFC"/>
<path d="M140.061 119.03C143.431 119.06 146.811 119.05 150.191 119C150.191 129.34 150.221 139.68 150.181 150.02C146.801 149.98 143.421 149.98 140.051 150C139.991 139.67 139.971 129.35 140.061 119.03Z" fill="#FDFDFC"/>
<path d="M159.921 119.03C163.351 119.08 166.791 119.08 170.231 119.04C170.351 129.36 170.201 139.69 170.291 150.01C166.821 149.97 163.341 149.97 159.871 150.02C159.891 139.69 159.781 129.36 159.921 119.03Z" fill="#FDFDFC"/>
<path d="M180.312 119.07C183.852 119.07 187.382 119.05 190.922 119.1C190.862 129.37 190.802 139.65 190.942 149.93C187.402 150 183.852 150.02 180.312 149.95C180.322 139.66 180.312 129.36 180.312 119.07Z" fill="#FDFDFC"/>
<path d="M200.951 119.03C204.391 119.08 207.831 119.08 211.271 119.01C211.331 129.35 211.361 139.69 211.261 150.03C207.821 149.99 204.371 149.98 200.931 150C200.901 139.68 200.881 129.35 200.951 119.03Z" fill="#FDFDFC"/>
<path d="M221.012 119.04C224.402 119.07 227.782 119.06 231.172 119.01C231.202 129.35 231.282 139.69 231.142 150.03C227.762 149.96 224.382 149.97 221.002 150C220.972 139.68 220.992 129.36 221.012 119.04Z" fill="#FDFDFC"/>
</svg>
